<svg width="20" height="21" viewBox="0 0 20 21" fill="none" xmlns="http://www.w3.org/2000/svg">
<path d="M16.9419 4.3032C15.6473 3.69747 14.263 3.25725 12.8158 3.00659C12.638 3.32793 12.4304 3.76014 12.2872 4.10397C10.7487 3.87261 9.22442 3.87261 7.7143 4.10397C7.57115 3.76014 7.35879 3.32793 7.17945 3.00659C5.73067 3.25725 4.34479 3.69909 3.05016 4.30641C0.438869 8.25241 -0.269009 12.1004 0.0849304 15.8938C1.81688 17.1871 3.49534 17.9728 5.14548 18.4869C5.55291 17.9262 5.91628 17.3302 6.22933 16.7019C5.63313 16.4754 5.06211 16.1958 4.52256 15.8713C4.6657 15.7652 4.80572 15.6543 4.94098 15.5403C8.23182 17.0795 11.8074 17.0795 15.059 15.5403C15.1958 15.6543 15.3358 15.7652 15.4774 15.8713C14.9362 16.1974 14.3636 16.477 13.7675 16.7035C14.0805 17.3302 14.4423 17.9278 14.8513 18.4885C16.503 17.9744 18.183 17.1888 19.915 15.8938C20.3303 11.4963 19.2056 7.68364 16.9419 4.3032ZM6.67764 13.5609C5.68977 13.5609 4.87962 12.6386 4.87962 11.5155C4.87962 10.3925 5.67247 9.4687 6.67764 9.4687C7.68285 9.4687 8.49297 10.3909 8.47564 11.5155C8.47721 12.6386 7.68285 13.5609 6.67764 13.5609ZM13.3223 13.5609C12.3344 13.5609 11.5242 12.6386 11.5242 11.5155C11.5242 10.3925 12.3171 9.4687 13.3223 9.4687C14.3275 9.4687 15.1376 10.3909 15.1203 11.5155C15.1203 12.6386 14.3275 13.5609 13.3223 13.5609Z" fill="white"/>
</svg>
